<?xml version="1.0" encoding="utf-8"?>
<svg version="1.1" id="itrk-logo" xmlns="http://www.w3.org/2000/svg" xmlns:xlink="http://www.w3.org/1999/xlink" x="0px" y="0px"
	 width="300px" height="186px" viewBox="0 0 300 186" enable-background="new 0 0 300 186" xml:space="preserve">
<g>
	<g>
		<path fill="#585858" d="M110.8,17.2v4.6h-4.2v-4.6H110.8z M110.8,29.1V57h-4.2V29.1H110.8z"/>
		<path fill="#585858" d="M133.2,29.1v3.4h-11v17.1c0,3,1.4,4.5,4.1,4.5c2.7,0,4-1.3,4-4l0-1.4l0.1-1.5h3.9l0,2.1c0,5.5-2.7,8.2-8,8.2c-5.5,0-8.3-2.3-8.3-6.9v-1V32.5h-3.9v-3.4h3.9v-6.7h4.2v6.7H133.2z"/>
		<path fill="#585858" d="M134.4,40.6H147v3.8h-12.7L134.4,40.6z"/>
		<path fill="#585858" d="M151.1,29.1h4.2l-0.4,3.2l0.1,0.1c1.7-2.6,4.4-3.9,8.2-3.9c5.3,0,7.9,2.6,7.9,7.9l0,1.9h-4.1l0.1-0.7c0.1-0.7,0.1-1.2,0.1-1.5c0-2.9-1.6-4.3-4.8-4.3c-4.7,0-7,2.8-7,8.4V57h-4.2V29.1z"/>
		<path fill="#585858" d="M194.9,48.6h4.3l0,1c0,2.9-0.9,4.9-2.7,6.1c-1.8,1.2-5,1.7-9.5,1.7c-5.3,0-8.7-0.9-10.3-2.8s-2.5-5.8-2.5-11.8c0-5.6,0.8-9.3,2.5-11.2c1.7-1.9,4.9-2.9,9.7-2.9c5.3,0,8.7,0.8,10.3,2.5c1.6,1.7,2.4,5.1,2.4,10.5v2.2h-20.5c0,4.4,0.5,7.2,1.4,8.4c1,1.2,3.2,1.8,6.8,1.8c3.4,0,5.5-0.3,6.6-0.9c1-0.6,1.5-1.8,1.5-3.7V48.6z M194.9,40.7l0-1.3c0-3-0.5-5-1.5-5.9c-1-0.9-3.2-1.4-6.6-1.4c-3.4,0-5.6,0.5-6.6,1.6c-1,1.1-1.5,3.4-1.5,7H194.9z"/>
		<path fill="#585858" d="M225.4,47h4.2l0,1.5c0,6-4,9-12,9c-5.1,0-8.5-0.9-10.2-2.8s-2.5-5.8-2.5-11.7c0-5.5,0.8-9.3,2.5-11.3c1.7-2,4.9-3,9.6-3c4.6,0,7.8,0.7,9.5,2c1.7,1.3,2.5,3.8,2.5,7.5h-4.2v-0.7c0-2.2-0.5-3.6-1.6-4.3c-1.1-0.7-3.3-1.1-6.5-1.1c-3.1,0-5.2,0.7-6.1,2s-1.3,4.4-1.3,9.2c0,4.6,0.5,7.6,1.5,8.8c1,1.3,3.4,1.9,7.2,1.9c3.2,0,5.2-0.4,6.1-1.2S225.4,50.1,225.4,47z"/>
		<path fill="#585858" d="M239.6,17.2v15.4l0.1,0.1c1.1-2.6,4-3.9,8.8-3.9c7.2,0,10.7,3.1,10.7,9.3v1.1V57h-4.2V39.2v-0.8c0-4.2-2.2-6.3-6.6-6.3c-3.5,0-5.9,0.6-7.1,1.9c-1.2,1.2-1.8,3.7-1.8,7.4V57h-4.2V17.2H239.6z"/>
		<path fill="#585858" d="M282,29.1v3.4h-11v17.1c0,3,1.4,4.5,4.1,4.5c2.7,0,4-1.3,4-4l0-1.4l0.1-1.5h3.9l0,2.1c0,5.5-2.7,8.2-8,8.2c-5.5,0-8.3-2.3-8.3-6.9v-1V32.5h-3.9v-3.4h3.9v-6.7h4.2v6.7H282z"/>
	</g>
	<g>
		<path fill="#585858" d="M110.8,77.1v23.1h1.9l10-11.2h5.2l-12.1,12.8l14.3,15.1h-5.6l-12-13.5h-1.7v13.5h-4.1V77.1H110.8z"/>
		<path fill="#585858" d="M140.1,96.9H136c0-3.2,0.7-5.4,2.2-6.6s4.4-1.7,8.7-1.7c4.7,0,7.9,0.7,9.6,2.1s2.5,4,2.5,7.8v18.4h-4.1l0.3-3l-0.1,0c-1.6,2.3-4.8,3.4-9.6,3.4c-7.1,0-10.7-2.8-10.7-8.5c0-3.4,0.8-5.7,2.4-7c1.6-1.3,4.5-1.9,8.7-1.9c5,0,7.9,1,8.9,2.9l0.1,0v-3.4c0-3.2-0.4-5.3-1.3-6.2c-0.9-0.9-2.8-1.4-5.8-1.4c-5.1,0-7.6,1.4-7.6,4.2C140.1,96.2,140.1,96.4,140.1,96.9z M146.7,103.1c-3.2,0-5.2,0.3-6.2,1c-1,0.7-1.4,2.1-1.4,4.3c0,2.3,0.5,3.8,1.4,4.5c0.9,0.7,2.9,1.1,5.8,1.1c5.8,0,8.8-1.8,8.8-5.3c0-2.2-0.6-3.7-1.7-4.4C152.2,103.5,150,103.1,146.7,103.1z"/>
		<path fill="#585858" d="M169.7,89h4l-0.1,3.8l0.1,0.1c1.3-2.9,4.4-4.3,9.4-4.3c4,0,6.8,0.7,8.2,2.1c1.4,1.4,2.1,4.1,2.1,8.1v18.2h-4.1V99.1v-1.1c0-2.4-0.5-4-1.4-4.8c-0.9-0.8-2.7-1.2-5.4-1.2c-5.8,0-8.7,2.7-8.7,8.1v16.8h-4.1V89z"/>
		<path fill="#585858" d="M203,89h20.4v4l-16.9,20.6h16.9v3.4h-21.8v-3.9l16.9-20.6H203V89z"/>
		<path fill="#585858" d="M235.5,77.1v39.8h-4.1V77.1H235.5z"/>
		<path fill="#585858" d="M265.5,108.5h4.2l0,1c0,2.9-0.9,4.9-2.7,6.1c-1.8,1.2-4.9,1.7-9.4,1.7c-5.2,0-8.6-0.9-10.2-2.8s-2.4-5.8-2.4-11.8c0-5.6,0.8-9.3,2.5-11.2c1.6-1.9,4.8-2.9,9.6-2.9c5.2,0,8.6,0.8,10.2,2.5c1.6,1.7,2.4,5.1,2.4,10.5v2.2h-20.3c0,4.4,0.5,7.2,1.4,8.4c1,1.2,3.2,1.8,6.7,1.8c3.3,0,5.5-0.3,6.5-0.9s1.5-1.8,1.5-3.7V108.5z M265.5,100.6l0-1.3c0-3-0.5-5-1.5-5.9c-1-0.9-3.2-1.4-6.5-1.4c-3.4,0-5.5,0.5-6.5,1.6c-1,1.1-1.5,3.4-1.5,7H265.5z"/>
		<path fill="#585858" d="M283.4,77.1v4.6h-4.1v-4.6H283.4z M283.4,89v27.9h-4.1V89H283.4z"/>
	</g>
	<g>
		<path fill="#585858" d="M105.9,149.6h3.2l-0.1,3.4l0.1,0.1c1.3-2.5,3.7-3.8,7.2-3.8c3.8,0,6,1.3,6.8,3.8h0.1c1.4-2.5,3.9-3.8,7.6-3.8c5.2,0,7.8,2.7,7.8,8.1v14.7h-3.2v-15c0-2-0.3-3.3-1-4c-0.7-0.7-2-1.1-3.9-1.1c-2.6,0-4.3,0.5-5.2,1.5s-1.4,2.9-1.4,5.6v13h-3.2v-14.7l0-1c0-2.9-1.6-4.4-4.9-4.4c-4.4,0-6.6,2.4-6.6,7.3v12.8h-3.2V149.6z"/>
		<path fill="#585858" d="M163.2,149.6v22.5h-3.2l0.2-2.9l-0.1-0.1c-1.1,2.2-3.5,3.3-7.2,3.3c-5.2,0-7.8-2.6-7.8-7.9v-15h3.2v15c0,2,0.3,3.4,1,4.1c0.7,0.7,2,1,3.9,1c2.5,0,4.3-0.5,5.2-1.5c0.9-1,1.4-2.9,1.4-5.7v-12.9H163.2z M151.8,142.5v3.1h-3.6v-3.1H151.8z M160.4,142.5v3.1h-3.6v-3.1H160.4z"/>
		<path fill="#585858" d="M169.2,149.6h3.1l-0.1,3.1l0.1,0.1c1-2.3,3.4-3.5,7.4-3.5c3.2,0,5.3,0.6,6.4,1.7s1.7,3.3,1.7,6.5v14.7h-3.2v-14.4v-0.8c0-1.9-0.4-3.2-1.1-3.9c-0.7-0.7-2.1-1-4.2-1c-4.6,0-6.8,2.2-6.8,6.6v13.6h-3.2V149.6z"/>
		<path fill="#585858" d="M208.9,164h3.2l0,1.2c0,4.8-3.1,7.2-9.3,7.2c-4,0-6.6-0.8-7.9-2.3s-1.9-4.7-1.9-9.4c0-4.5,0.7-7.5,2-9.1c1.3-1.6,3.8-2.4,7.5-2.4c3.6,0,6.1,0.5,7.4,1.6c1.3,1.1,2,3.1,2,6.1h-3.2v-0.6c0-1.7-0.4-2.9-1.3-3.5c-0.8-0.6-2.5-0.9-5.1-0.9c-2.4,0-4,0.6-4.7,1.7c-0.7,1.1-1,3.6-1,7.4c0,3.7,0.4,6.1,1.2,7.1c0.8,1,2.7,1.5,5.6,1.5c2.5,0,4-0.3,4.7-1C208.5,168,208.9,166.5,208.9,164z"/>
		<path fill="#585858" d="M219.9,139.9v12.4l0.1,0c0.8-2.1,3.1-3.2,6.9-3.2c5.6,0,8.3,2.5,8.3,7.5v0.9v14.4h-3.2v-14.4v-0.6c0-3.4-1.7-5.1-5.1-5.1c-2.8,0-4.6,0.5-5.5,1.5c-0.9,1-1.4,3-1.4,6v12.7h-3.2v-32.2H219.9z"/>
		<path fill="#585858" d="M256.5,165.3h3.3l0,0.8c0,2.3-0.7,4-2.1,4.9c-1.4,0.9-3.9,1.4-7.4,1.4c-4.1,0-6.8-0.8-8-2.3c-1.3-1.5-1.9-4.7-1.9-9.6c0-4.5,0.6-7.5,1.9-9.1s3.8-2.3,7.5-2.3c4.1,0,6.8,0.7,8,2s1.9,4.1,1.9,8.4v1.8h-15.9c0,3.6,0.4,5.8,1.1,6.8c0.7,1,2.5,1.5,5.2,1.5c2.6,0,4.3-0.2,5.1-0.7c0.8-0.5,1.2-1.5,1.2-3V165.3z M256.5,158.9l0-1.1c0-2.4-0.4-4-1.2-4.8c-0.8-0.7-2.5-1.1-5.1-1.1c-2.6,0-4.3,0.4-5.1,1.3c-0.8,0.9-1.2,2.7-1.2,5.6H256.5z"/>
		<path fill="#585858" d="M264.9,149.6h3.1l-0.1,3.1l0.1,0.1c1-2.3,3.4-3.5,7.4-3.5c3.2,0,5.3,0.6,6.4,1.7s1.7,3.3,1.7,6.5v14.7h-3.2v-14.4v-0.8c0-1.9-0.4-3.2-1.1-3.9c-0.7-0.7-2.1-1-4.2-1c-4.6,0-6.8,2.2-6.8,6.6v13.6h-3.2V149.6z"/>
	</g>
	<g>
		<rect x="106" y="130.5" fill="#EF7D00" width="177.5" height="1.1"/>
	</g>
	<g id="logo">
		<path fill="#9E9E9E" d="M5.4,105.7C15,115.7,48,111.5,36,96c-6.9-8.8-4.8-14.9-2.9-22.6c5.9-24.4,41-68.7,33.2-73.2C58.4-4.2,20.2,47.4,8.3,68C-3.7,88.7-0.9,99.2,5.4,105.7"/>
		<path fill="#EF7D00" d="M72.1,80c-9.6-10-42.7-5.8-30.6,9.7c6.9,8.8,4.8,14.9,2.9,22.6c-5.9,24.4-41,68.7-33.2,73.2c7.8,4.5,46.1-47.2,58-67.8C81.1,97.1,78.3,86.5,72.1,80"/>
	</g>
</g>
</svg>
