<?xml version="1.0" encoding="utf-8"?>
<svg version="1.1" id="Pfade" xmlns="http://www.w3.org/2000/svg" xmlns:xlink="http://www.w3.org/1999/xlink" x="0px" y="0px"
	 width="300px" height="300px" viewBox="0 0 300 300" enable-background="new 0 0 300 300" xml:space="preserve">
<g>
	<g>
		<path fill="#585858" d="M116.5,71.2V76h-4.4v-4.8H116.5z M116.5,83.7v29.4h-4.4V83.7H116.5z"/>
		<path fill="#585858" d="M140.1,83.7v3.6h-11.5v18c0,3.1,1.4,4.7,4.3,4.7c2.8,0,4.2-1.4,4.2-4.2l0-1.4l0.1-1.6h4.1l0,2.2
			c0,5.8-2.8,8.7-8.4,8.7c-5.8,0-8.7-2.4-8.7-7.2v-1v-18H120v-3.6h4.1v-7.1h4.4v7.1H140.1z"/>
		<path fill="#585858" d="M141.4,95.9h13.2v4h-13.3L141.4,95.9z"/>
		<path fill="#585858" d="M158.9,83.7h4.4l-0.4,3.4l0.1,0.1c1.7-2.8,4.6-4.2,8.6-4.2c5.5,0,8.3,2.8,8.3,8.4l0,2h-4.3l0.1-0.7
			c0.1-0.8,0.1-1.3,0.1-1.6c0-3-1.7-4.5-5-4.5c-4.9,0-7.3,3-7.3,8.9v17.6h-4.4V83.7z"/>
		<path fill="#585858" d="M204.9,104.3h4.5l0,1.1c0,3.1-0.9,5.2-2.8,6.4c-1.9,1.2-5.2,1.8-10,1.8c-5.5,0-9.1-1-10.9-3
			c-1.7-2-2.6-6.1-2.6-12.5c0-5.9,0.9-9.8,2.6-11.8c1.7-2,5.1-3,10.2-3c5.5,0,9.1,0.9,10.9,2.6c1.7,1.7,2.6,5.4,2.6,11v2.3h-21.6
			c0,4.6,0.5,7.6,1.5,8.9c1,1.3,3.4,1.9,7.1,1.9c3.5,0,5.8-0.3,6.9-0.9c1.1-0.6,1.6-1.9,1.6-3.9V104.3z M204.9,95.9l0-1.4
			c0-3.2-0.5-5.2-1.6-6.2c-1.1-1-3.4-1.4-6.9-1.4c-3.6,0-5.9,0.6-6.9,1.7s-1.6,3.6-1.6,7.3H204.9z"/>
		<path fill="#585858" d="M237,102.5h4.4l0,1.6c0,6.3-4.2,9.4-12.6,9.4c-5.4,0-9-1-10.7-3c-1.7-2-2.6-6.1-2.6-12.3
			c0-5.8,0.9-9.8,2.7-11.9c1.8-2.1,5.1-3.1,10.1-3.1c4.9,0,8.2,0.7,10,2.1c1.8,1.4,2.7,4,2.7,7.9h-4.4v-0.8c0-2.3-0.6-3.8-1.7-4.5
			c-1.2-0.8-3.4-1.1-6.9-1.1c-3.3,0-5.4,0.7-6.4,2.2c-0.9,1.4-1.4,4.7-1.4,9.7c0,4.9,0.5,8,1.6,9.3c1.1,1.3,3.6,2,7.5,2
			c3.3,0,5.5-0.4,6.4-1.3C236.5,107.8,237,105.8,237,102.5z"/>
		<path fill="#585858" d="M251.9,71.2v16.2l0.1,0.1c1.1-2.7,4.2-4.1,9.3-4.1c7.5,0,11.3,3.3,11.3,9.8v1.2v18.8h-4.4V94.4v-0.8
			c0-4.4-2.3-6.6-6.9-6.6c-3.7,0-6.2,0.7-7.5,2c-1.3,1.3-1.9,3.9-1.9,7.8v16.5h-4.4v-42H251.9z"/>
		<path fill="#585858" d="M296.5,83.7v3.6h-11.5v18c0,3.1,1.4,4.7,4.3,4.7c2.8,0,4.2-1.4,4.2-4.2l0-1.4l0.1-1.6h4.1l0,2.2
			c0,5.8-2.8,8.7-8.4,8.7c-5.8,0-8.7-2.4-8.7-7.2v-1v-18h-4.1v-3.6h4.1v-7.1h4.4v7.1H296.5z"/>
	</g>
	<g>
		<path fill="#585858" d="M116.4,134.1v24.4h2l10.5-11.8h5.5l-12.7,13.5l15,15.9h-5.9l-12.6-14.2h-1.8v14.2h-4.4v-42H116.4z"/>
		<path fill="#585858" d="M147.2,154.9h-4.3c0-3.4,0.8-5.7,2.3-6.9s4.6-1.8,9.2-1.8c5,0,8.3,0.7,10,2.2c1.7,1.4,2.6,4.2,2.6,8.3
			v19.4h-4.4l0.3-3.2l-0.1,0c-1.7,2.4-5,3.6-10.1,3.6c-7.5,0-11.3-3-11.3-8.9c0-3.5,0.8-6,2.5-7.3c1.7-1.4,4.7-2,9.1-2
			c5.2,0,8.4,1,9.4,3l0.1,0v-3.6c0-3.4-0.5-5.5-1.4-6.5c-0.9-1-3-1.5-6.1-1.5c-5.3,0-8,1.5-8,4.5
			C147.2,154.2,147.2,154.5,147.2,154.9z M154.2,161.6c-3.3,0-5.5,0.3-6.5,1c-1,0.7-1.5,2.2-1.5,4.5c0,2.4,0.5,4,1.5,4.7
			c1,0.8,3,1.2,6.1,1.2c6.1,0,9.2-1.8,9.2-5.5c0-2.3-0.6-3.9-1.8-4.7C159.9,162,157.6,161.6,154.2,161.6z"/>
		<path fill="#585858" d="M178.3,146.7h4.2l-0.1,4l0.1,0.1c1.3-3,4.6-4.5,9.9-4.5c4.2,0,7.1,0.7,8.6,2.2c1.5,1.5,2.3,4.3,2.3,8.5
			v19.1h-4.4v-18.8v-1.1c0-2.5-0.5-4.2-1.5-5.1c-1-0.9-2.9-1.3-5.6-1.3c-6.1,0-9.2,2.9-9.2,8.6v17.7h-4.4V146.7z"/>
		<path fill="#585858" d="M213.4,146.7h21.4v4.2l-17.7,21.6h17.7v3.6h-22.9V172l17.8-21.7h-16.3V146.7z"/>
		<path fill="#585858" d="M247.5,134.1v42h-4.4v-42H247.5z"/>
		<path fill="#585858" d="M279,167.2h4.4l0,1.1c0,3.1-0.9,5.2-2.8,6.4c-1.9,1.2-5.2,1.8-9.9,1.8c-5.5,0-9.1-1-10.8-3
			c-1.7-2-2.6-6.1-2.6-12.5c0-5.9,0.9-9.8,2.6-11.8c1.7-2,5.1-3,10.1-3c5.5,0,9.1,0.9,10.8,2.6c1.7,1.7,2.5,5.4,2.5,11v2.3h-21.4
			c0,4.6,0.5,7.6,1.5,8.9c1,1.3,3.4,1.9,7,1.9c3.5,0,5.8-0.3,6.8-0.9c1-0.6,1.6-1.9,1.6-3.9V167.2z M279,158.9l0-1.4
			c0-3.2-0.5-5.2-1.6-6.2c-1.1-1-3.3-1.4-6.8-1.4c-3.5,0-5.8,0.6-6.9,1.7c-1,1.1-1.6,3.6-1.6,7.3H279z"/>
		<path fill="#585858" d="M297.9,134.1v4.8h-4.4v-4.8H297.9z M297.9,146.7v29.4h-4.4v-29.4H297.9z"/>
	</g>
	<g>
		<path fill="#585858" d="M111.3,210.5h3.4l-0.1,3.6l0.1,0.1c1.3-2.7,3.9-4,7.6-4c3.9,0,6.3,1.3,7.2,4h0.1c1.5-2.7,4.1-4,8-4
			c5.5,0,8.2,2.9,8.2,8.6v15.5h-3.4v-15.8c0-2.1-0.4-3.5-1.1-4.2c-0.7-0.7-2.1-1.1-4.1-1.1c-2.7,0-4.5,0.5-5.5,1.6
			c-1,1-1.4,3-1.4,5.9v13.7h-3.4v-15.5l0-1.1c0-3.1-1.7-4.6-5.1-4.6c-4.6,0-7,2.6-7,7.7v13.5h-3.4V210.5z"/>
		<path fill="#585858" d="M171.5,210.5v23.7h-3.4l0.2-3.1l-0.1-0.1c-1.2,2.4-3.7,3.5-7.6,3.5c-5.4,0-8.2-2.8-8.2-8.3v-15.8h3.4v15.8
			c0,2.2,0.3,3.6,1,4.3c0.7,0.7,2.1,1.1,4.1,1.1c2.7,0,4.5-0.5,5.5-1.6c1-1.1,1.5-3.1,1.5-6v-13.6H171.5z M159.5,203v3.2h-3.8V203
			H159.5z M168.5,203v3.2h-3.8V203H168.5z"/>
		<path fill="#585858" d="M177.8,210.5h3.3l-0.1,3.2l0.1,0.1c1-2.4,3.6-3.7,7.7-3.7c3.3,0,5.6,0.6,6.8,1.8c1.2,1.2,1.8,3.5,1.8,6.9
			v15.4h-3.4v-15.1v-0.9c0-2-0.4-3.4-1.1-4.1c-0.8-0.7-2.2-1.1-4.4-1.1c-4.8,0-7.2,2.3-7.2,6.9v14.3h-3.4V210.5z"/>
		<path fill="#585858" d="M219.5,225.7h3.4l0,1.3c0,5.1-3.3,7.6-9.8,7.6c-4.2,0-7-0.8-8.3-2.4c-1.3-1.6-2-4.9-2-9.9
			c0-4.7,0.7-7.9,2.1-9.6c1.4-1.7,4-2.5,7.8-2.5c3.8,0,6.4,0.6,7.7,1.7c1.4,1.1,2.1,3.3,2.1,6.4h-3.4v-0.6c0-1.8-0.4-3.1-1.3-3.7
			c-0.9-0.6-2.7-0.9-5.3-0.9c-2.6,0-4.2,0.6-4.9,1.7c-0.7,1.2-1.1,3.8-1.1,7.8c0,3.9,0.4,6.4,1.3,7.5c0.8,1.1,2.8,1.6,5.9,1.6
			c2.6,0,4.2-0.4,4.9-1.1C219.2,229.9,219.5,228.3,219.5,225.7z"/>
		<path fill="#585858" d="M231.1,200.3v13.1l0.1,0c0.9-2.2,3.3-3.3,7.2-3.3c5.8,0,8.8,2.6,8.8,7.9v1v15.2h-3.4v-15.2v-0.7
			c0-3.6-1.8-5.4-5.4-5.4c-2.9,0-4.8,0.5-5.8,1.6c-1,1.1-1.5,3.1-1.5,6.3v13.4h-3.4v-33.9H231.1z"/>
		<path fill="#585858" d="M269.6,227h3.5l0,0.9c0,2.5-0.7,4.2-2.2,5.2c-1.5,1-4,1.5-7.7,1.5c-4.3,0-7.1-0.8-8.4-2.4
			c-1.3-1.6-2-5-2-10.1c0-4.7,0.7-7.9,2-9.5c1.3-1.6,4-2.4,7.9-2.4c4.3,0,7.1,0.7,8.4,2.1c1.3,1.4,2,4.4,2,8.9v1.9h-16.8
			c0,3.7,0.4,6.1,1.2,7.2c0.8,1,2.6,1.5,5.5,1.5c2.7,0,4.5-0.2,5.3-0.7c0.8-0.5,1.2-1.5,1.2-3.2V227z M269.6,220.3l0-1.1
			c0-2.6-0.4-4.2-1.2-5c-0.8-0.8-2.6-1.2-5.4-1.2c-2.8,0-4.6,0.5-5.4,1.4c-0.8,0.9-1.2,2.9-1.2,5.9H269.6z"/>
		<path fill="#585858" d="M278.4,210.5h3.3l-0.1,3.2l0.1,0.1c1-2.4,3.6-3.7,7.7-3.7c3.3,0,5.6,0.6,6.8,1.8c1.2,1.2,1.8,3.5,1.8,6.9
			v15.4h-3.4v-15.1v-0.9c0-2-0.4-3.4-1.1-4.1c-0.8-0.7-2.2-1.1-4.4-1.1c-4.8,0-7.2,2.3-7.2,6.9v14.3h-3.4V210.5z"/>
	</g>
	<g>
		<rect x="111.4" y="190.3" fill="#EF7D00" width="186.6" height="1.2"/>
	</g>
	<g>
		<g>
			<path fill="#9E9E9E" d="M5.6,164.2c10.1,10.5,44.9,6.1,32.2-10.2c-7.3-9.3-5-15.7-3-23.8c6.2-25.7,43.1-72.3,34.9-77.1
				c-8.2-4.8-48.5,49.7-61,71.4C-3.8,146.2-0.9,157.3,5.6,164.2"/>
		</g>
		<g>
			<path fill="#EF7D00" d="M75.8,137.1c-10.1-10.5-44.9-6.1-32.2,10.2c7.3,9.3,5,15.7,3,23.8c-6.2,25.7-43.1,72.3-34.9,77.1
				c8.2,4.8,48.5-49.7,61-71.4C85.3,155.1,82.3,144,75.8,137.1"/>
		</g>
	</g>
</g>
</svg>
